HIERARCHY
ROOT hip
{
  OFFSET -0.380877 103.83 -0.41898
  CHANNELS 6 Xposition Yposition Zposition Zrotation Xrotation Yrotation
  JOINT abdomen
  {
    OFFSET 0 -1.186 -1.50178
    CHANNELS 6 Xposition Yposition Zposition Zrotation Xrotation Yrotation
    JOINT abdomen2
    {
      OFFSET 0 9.964 0.21338
      CHANNELS 6 Xposition Yposition Zposition Zrotation Xrotation Yrotation
      JOINT chest
      {
        OFFSET 0 13.134 -3.25729
        CHANNELS 6 Xposition Yposition Zposition Zrotation Xrotation Yrotation
        JOINT neck
        {
          OFFSET 0 21.686 -1.69049
          CHANNELS 6 Xposition Yposition Zposition Zrotation Xrotation Yrotation
          JOINT head
          {
            OFFSET 0 11.838 -0.12368
            CHANNELS 6 Xposition Yposition Zposition Zrotation Xrotation Yrotation
            End Site
            {
              OFFSET 0 6.717 2.38717
            }
          }
        }
        JOINT lCollar
        {
          OFFSET 1.70688 20.075 5.0056
          CHANNELS 6 Xposition Yposition Zposition Zrotation Xrotation Yrotation
          JOINT lShldr
          {
            OFFSET 13.6458 -0.047012 -4.84902
            CHANNELS 6 Xposition Yposition Zposition Zrotation Xrotation Yrotation
            JOINT lForeArm
            {
              OFFSET 28.3255 -0.975903 2.28883
              CHANNELS 6 Xposition Yposition Zposition Zrotation Xrotation Yrotation
              JOINT lHand
              {
                OFFSET 22.1583 -0.530035 10.8316
                CHANNELS 6 Xposition Yposition Zposition Zrotation Xrotation Yrotation
                JOINT lThumb1
                {
                  OFFSET 0.785995 0.111999 2.58168
                  CHANNELS 6 Xposition Yposition Zposition Zrotation Xrotation Yrotation
                  JOINT lThumb2
                  {
                    OFFSET 0.3601 -0.878005 4.2331
                    CHANNELS 6 Xposition Yposition Zposition Zrotation Xrotation Yrotation
                    End Site
                    {
                      OFFSET 1.81271 -1.21601 2.2227
                    }
                  }
                }
                JOINT lCarpal1
                {
                  OFFSET 0.9571 1.114 1.76948
                  CHANNELS 6 Xposition Yposition Zposition Zrotation Xrotation Yrotation
                  JOINT lIndex1
                  {
                    OFFSET 4.1246 0.487 4.1451
                    CHANNELS 6 Xposition Yposition Zposition Zrotation Xrotation Yrotation
                    JOINT lIndex2
                    {
                      OFFSET 3.40521 -1.45401 2.7682
                      CHANNELS 6 Xposition Yposition Zposition Zrotation Xrotation Yrotation
                      End Site
                      {
                        OFFSET 1.4531 -1.795 1.2713
                      }
                    }
                  }
                  JOINT lMid1
                  {
                    OFFSET 5.6954 0.209991 2.1184
                    CHANNELS 6 Xposition Yposition Zposition Zrotation Xrotation Yrotation
                    JOINT lMid2
                    {
                      OFFSET 3.9766 -1.53999 2.3863
                      CHANNELS 6 Xposition Yposition Zposition Zrotation Xrotation Yrotation
                      End Site
                      {
                        OFFSET 1.4042 -1.926 1.125
                      }
                    }
                  }
                }
                JOINT lCarpal2
                {
                  OFFSET 2.09559 0.65999 -0.38939
                  CHANNELS 6 Xposition Yposition Zposition Zrotation Xrotation Yrotation
                  JOINT lRing1
                  {
                    OFFSET 5.0395 -0.089997 2.49707
                    CHANNELS 6 Xposition Yposition Zposition Zrotation Xrotation Yrotation
                    JOINT lRing2
                    {
                      OFFSET 3.7921 -1.552 1.4806
                      CHANNELS 6 Xposition Yposition Zposition Zrotation Xrotation Yrotation
                      End Site
                      {
                        OFFSET 1.4655 -1.808 0.9609
                      }
                    }
                  }
                  JOINT lPinky1
                  {
                    OFFSET 4.9141 -1.269 0.35915
                    CHANNELS 6 Xposition Yposition Zposition Zrotation Xrotation Yrotation
                    JOINT lPinky2
                    {
                      OFFSET 3.1477 -1.685 0.84623
                      CHANNELS 6 Xposition Yposition Zposition Zrotation Xrotation Yrotation
                      End Site
                      {
                        OFFSET 0.805505 -1.58499 0.79549
                      }
                    }
                  }
                }
              }
            }
          }
        }
        JOINT rCollar
        {
          OFFSET -1.70688 20.075 5.0056
          CHANNELS 6 Xposition Yposition Zposition Zrotation Xrotation Yrotation
          JOINT rShldr
          {
            OFFSET -13.6458 -0.047012 -4.84902
            CHANNELS 6 Xposition Yposition Zposition Zrotation Xrotation Yrotation
            JOINT rForeArm
            {
              OFFSET -28.3255 -0.975903 2.28883
              CHANNELS 6 Xposition Yposition Zposition Zrotation Xrotation Yrotation
              JOINT rHand
              {
                OFFSET -22.1583 -0.530036 10.8316
                CHANNELS 6 Xposition Yposition Zposition Zrotation Xrotation Yrotation
                JOINT rThumb1
                {
                  OFFSET -0.785995 0.111999 2.58168
                  CHANNELS 6 Xposition Yposition Zposition Zrotation Xrotation Yrotation
                  JOINT rThumb2
                  {
                    OFFSET -0.3601 -0.878005 4.2331
                    CHANNELS 6 Xposition Yposition Zposition Zrotation Xrotation Yrotation
                    End Site
                    {
                      OFFSET -1.81271 -1.21601 2.2227
                    }
                  }
                }
                JOINT rCarpal1
                {
                  OFFSET -0.9571 1.114 1.76948
                  CHANNELS 6 Xposition Yposition Zposition Zrotation Xrotation Yrotation
                  JOINT rIndex1
                  {
                    OFFSET -4.1246 0.487 4.1451
                    CHANNELS 6 Xposition Yposition Zposition Zrotation Xrotation Yrotation
                    JOINT rIndex2
                    {
                      OFFSET -3.40521 -1.45401 2.7682
                      CHANNELS 6 Xposition Yposition Zposition Zrotation Xrotation Yrotation
                      End Site
                      {
                        OFFSET -1.4531 -1.795 1.2713
                      }
                    }
                  }
                  JOINT rMid1
                  {
                    OFFSET -5.6954 0.209991 2.1184
                    CHANNELS 6 Xposition Yposition Zposition Zrotation Xrotation Yrotation
                    JOINT rMid2
                    {
                      OFFSET -3.9766 -1.53999 2.3863
                      CHANNELS 6 Xposition Yposition Zposition Zrotation Xrotation Yrotation
                      End Site
                      {
                        OFFSET -1.4042 -1.926 1.125
                      }
                    }
                  }
                }
                JOINT rCarpal2
                {
                  OFFSET -2.09559 0.65999 -0.38939
                  CHANNELS 6 Xposition Yposition Zposition Zrotation Xrotation Yrotation
                  JOINT rRing1
                  {
                    OFFSET -5.0395 -0.089997 2.49707
                    CHANNELS 6 Xposition Yposition Zposition Zrotation Xrotation Yrotation
                    JOINT rRing2
                    {
                      OFFSET -3.7921 -1.552 1.4806
                      CHANNELS 6 Xposition Yposition Zposition Zrotation Xrotation Yrotation
                      End Site
                      {
                        OFFSET -1.4655 -1.808 0.9609
                      }
                    }
                  }
                  JOINT rPinky1
                  {
                    OFFSET -4.9141 -1.269 0.35915
                    CHANNELS 6 Xposition Yposition Zposition Zrotation Xrotation Yrotation
                    JOINT rPinky2
                    {
                      OFFSET -3.1477 -1.685 0.84623
                      CHANNELS 6 Xposition Yposition Zposition Zrotation Xrotation Yrotation
                      End Site
                      {
                        OFFSET -0.805505 -1.58499 0.79549
                      }
                    }
                  }
                }
              }
            }
          }
        }
      }
    }
  }
  JOINT lThigh
  {
    OFFSET 8.367 -8.2066 0.59823
    CHANNELS 6 Xposition Yposition Zposition Zrotation Xrotation Yrotation
    JOINT lShin
    {
      OFFSET 2.19232 -43.463 -0.493181
      CHANNELS 6 Xposition Yposition Zposition Zrotation Xrotation Yrotation
      JOINT lFoot
      {
        OFFSET 0.733257 -45.8593 -2.64513
        CHANNELS 6 Xposition Yposition Zposition Zrotation Xrotation Yrotation
        End Site
        {
          OFFSET 2.6618 -4.26993 12.3931
        }
      }
    }
  }
  JOINT rThigh
  {
    OFFSET -8.367 -8.2066 0.59823
    CHANNELS 6 Xposition Yposition Zposition Zrotation Xrotation Yrotation
    JOINT rShin
    {
      OFFSET -2.19233 -43.463 -0.493108
      CHANNELS 6 Xposition Yposition Zposition Zrotation Xrotation Yrotation
      JOINT rFoot
      {
        OFFSET -0.733256 -45.8593 -2.64514
        CHANNELS 6 Xposition Yposition Zposition Zrotation Xrotation Yrotation
        End Site
        {
          OFFSET -2.6618 -4.26993 12.3931
        }
      }
    }
  }
}
MOTION
Frames:	4
Frame Time:	0.0333333
-0.430851 103.967 -0.577956 0.801322 -1.94268 7.51975 0 -1.186 -1.50178 0.12599 1.0638 -0.0232032 2.22045e-016 9.964 0.21338 0.252046 2.12756 -0.0509604 0 13.134 -3.25729 0.251464 2.12755 -0.0539065 0 21.686 -1.69049 2.06233 -4.95505 -2.83967 -1.77636e-015 11.838 -0.12368 -1.31103 0.585677 -1.97303 1.70688 20.075 5.0056 0.881038 -2.73957 -1.33241 13.6458 -0.047012 -4.84902 -82.9484 1.42993 4.48621 28.3255 -0.975903 2.28883 -1.49218 -3.83125 21.183 22.1583 -0.530035 10.8316 0.354656 -0.281788 -0.0271152 0.785995 0.111999 2.58168 -7.95139e-016 -3.18055e-015 -3.18055e-015 0.3601 -0.878005 4.2331 1.59028e-015 0 3.18055e-015 0.9571 1.114 1.76948 -7.95139e-016 -3.18055e-015 -3.18055e-015 4.1246 0.487 4.1451 1.59028e-015 0 3.18055e-015 3.40521 -1.45401 2.7682 7.95139e-016 1.59028e-015 1.27222e-014 5.6954 0.209991 2.1184 1.59028e-015 0 3.18055e-015 3.9766 -1.53999 2.3863 7.95139e-016 1.59028e-015 1.27222e-014 2.09559 0.65999 -0.38939 -7.95139e-016 -3.18055e-015 -3.18055e-015 5.0395 -0.089997 2.49707 1.59028e-015 0 3.18055e-015 3.7921 -1.552 1.4806 7.95139e-016 1.59028e-015 1.27222e-014 4.9141 -1.269 0.35915 1.59028e-015 0 3.18055e-015 3.1477 -1.685 0.84623 7.95139e-016 1.59028e-015 1.27222e-014 -1.70688 20.075 5.0056 1.77268 -2.65422 1.68276 -13.6458 -0.047012 -4.84902 76.398 13.422 -5.20748 -28.3255 -0.975903 2.28883 1.64558 -7.66562 -18.5079 -22.1583 -0.530036 10.8316 4.0987 3.20114 -4.10755 -0.785995 0.111999 2.58168 -8.82781e-032 -1.59028e-015 -3.18055e-015 -0.3601 -0.878005 4.2331 3.18055e-015 0 3.18055e-015 -0.9571 1.114 1.76948 -8.82781e-032 -1.59028e-015 -3.18055e-015 -4.1246 0.487 4.1451 3.18055e-015 0 3.18055e-015 -3.40521 -1.45401 2.7682 -8.82781e-032 -1.59028e-015 -3.18055e-015 -5.6954 0.209991 2.1184 3.18055e-015 0 3.18055e-015 -3.9766 -1.53999 2.3863 -8.82781e-032 -1.59028e-015 -3.18055e-015 -2.09559 0.65999 -0.38939 -8.82781e-032 -1.59028e-015 -3.18055e-015 -5.0395 -0.089997 2.49707 3.18055e-015 0 3.18055e-015 -3.7921 -1.552 1.4806 -8.82781e-032 -1.59028e-015 -3.18055e-015 -4.9141 -1.269 0.35915 3.18055e-015 0 3.18055e-015 -3.1477 -1.685 0.84623 -8.82781e-032 -1.59028e-015 -3.18055e-015 8.367 -8.2066 0.59823 0.496316 0.605815 0.0937974 2.19232 -43.463 -0.493181 0.0568176 0.453845 -2.42344 0.733257 -45.8593 -2.64513 0.336717 -0.332634 0.137433 -8.367 -8.2066 0.59823 2.03081 1.71486 -2.67536 -2.19233 -43.463 -0.493108 -0.477178 2.70427 -4.60227 -0.733256 -45.8593 -2.64514 3.04804 -2.18176 -0.557469 
-0.444336 103.97 -0.59739 0.7907 -1.95009 7.45007 0 -1.186 -1.50178 0.126457 1.09208 -0.0258479 1.11022e-016 9.964 0.21338 0.253035 2.18413 -0.0563825 0 13.134 -3.25729 0.252441 2.18412 -0.0594199 0 21.686 -1.69049 1.97183 -4.99993 -2.76698 1.77636e-015 11.838 -0.12368 -1.12804 0.39316 -1.99581 1.70688 20.075 5.0056 0.773448 -2.74694 -1.28942 13.6458 -0.047012 -4.84902 -82.7255 1.48042 4.42353 28.3255 -0.975903 2.28883 -1.55239 -3.83083 21.1829 22.1583 -0.530035 10.8316 0.37449 -0.243925 0.256509 0.785995 0.111999 2.58168 -7.95139e-016 -4.77083e-015 3.18055e-015 0.3601 -0.878005 4.2331 -0 0 3.18055e-015 0.9571 1.114 1.76948 -7.95139e-016 -4.77083e-015 3.18055e-015 4.1246 0.487 4.1451 -0 0 3.18055e-015 3.40521 -1.45401 2.7682 1.59028e-015 1.59028e-015 3.18055e-015 5.6954 0.209991 2.1184 -0 0 3.18055e-015 3.9766 -1.53999 2.3863 1.59028e-015 1.59028e-015 3.18055e-015 2.09559 0.65999 -0.38939 -7.95139e-016 -4.77083e-015 3.18055e-015 5.0395 -0.089997 2.49707 -0 0 3.18055e-015 3.7921 -1.552 1.4806 1.59028e-015 1.59028e-015 3.18055e-015 4.9141 -1.269 0.35915 -0 0 3.18055e-015 3.1477 -1.685 0.84623 1.59028e-015 1.59028e-015 3.18055e-015 -1.70688 20.075 5.0056 1.86572 -2.71165 1.7163 -13.6458 -0.047012 -4.84902 76.2957 13.6688 -5.13639 -28.3255 -0.975903 2.28883 1.69935 -7.79309 -18.5228 -22.1583 -0.530036 10.8316 3.83668 3.01317 -3.9929 -0.785995 0.111999 2.58168 -7.95139e-016 0 -3.18055e-015 -0.3601 -0.878005 4.2331 -1.59028e-015 3.18055e-015 -0 -0.9571 1.114 1.76948 -7.95139e-016 0 -3.18055e-015 -4.1246 0.487 4.1451 -1.59028e-015 3.18055e-015 -0 -3.40521 -1.45401 2.7682 -1.59028e-015 1.59028e-015 3.18055e-015 -5.6954 0.209991 2.1184 -1.59028e-015 3.18055e-015 -0 -3.9766 -1.53999 2.3863 -1.59028e-015 1.59028e-015 3.18055e-015 -2.09559 0.65999 -0.38939 -7.95139e-016 0 -3.18055e-015 -5.0395 -0.089997 2.49707 -1.59028e-015 3.18055e-015 -0 -3.7921 -1.552 1.4806 -1.59028e-015 1.59028e-015 3.18055e-015 -4.9141 -1.269 0.35915 -1.59028e-015 3.18055e-015 -0 -3.1477 -1.685 0.84623 -1.59028e-015 1.59028e-015 3.18055e-015 8.367 -8.2066 0.59823 0.495463 0.596408 0.103085 2.19232 -43.463 -0.493181 0.0775171 0.451025 -2.3932 0.733257 -45.8593 -2.64513 0.0773533 -0.396866 0.181001 -8.367 -8.2066 0.59823 2.06293 1.65698 -2.62904 -2.19233 -43.463 -0.493108 -0.50608 2.7655 -4.60736 -0.733256 -45.8593 -2.64514 3.07984 -2.17981 -0.564922 
-0.422769 103.977 -0.621871 0.686869 -1.91717 7.49597 1.11022e-016 -1.186 -1.50178 0.186393 1.10524 -0.0400651 0 9.964 0.21338 0.373219 2.21035 -0.086027 2.22045e-016 13.134 -3.25729 0.372619 2.21032 -0.0890802 4.44089e-016 21.686 -1.69049 1.5223 -5.2242 -2.7085 8.88179e-016 11.838 -0.12368 -0.820326 0.408946 -2.05256 1.70688 20.075 5.0056 0.446314 -2.61289 -1.32293 13.6458 -0.047012 -4.84902 -82.5627 1.47922 4.30471 28.3255 -0.975903 2.28883 -1.56538 -3.87861 21.1823 22.1583 -0.530035 10.8316 0.380007 -0.276515 0.115235 0.785995 0.111999 2.58168 2.38542e-015 4.77083e-015 -0 0.3601 -0.878005 4.2331 -1.59028e-015 1.59028e-015 3.18055e-015 0.9571 1.114 1.76948 2.38542e-015 4.77083e-015 -0 4.1246 0.487 4.1451 -1.59028e-015 1.59028e-015 3.18055e-015 3.40521 -1.45401 2.7682 1.59028e-015 0 -0 5.6954 0.209991 2.1184 -1.59028e-015 1.59028e-015 3.18055e-015 3.9766 -1.53999 2.3863 1.59028e-015 0 -0 2.09559 0.65999 -0.38939 2.38542e-015 4.77083e-015 -0 5.0395 -0.089997 2.49707 -1.59028e-015 1.59028e-015 3.18055e-015 3.7921 -1.552 1.4806 1.59028e-015 0 -0 4.9141 -1.269 0.35915 -1.59028e-015 1.59028e-015 3.18055e-015 3.1477 -1.685 0.84623 1.59028e-015 0 -0 -1.70688 20.075 5.0056 1.58536 -2.60755 1.632 -13.6458 -0.047012 -4.84902 76.3544 13.7186 -4.92526 -28.3255 -0.975903 2.28883 1.75213 -7.94313 -18.5347 -22.1583 -0.530036 10.8316 3.66432 2.89548 -4.02445 -0.785995 0.111999 2.58168 8.82781e-032 1.59028e-015 -3.18055e-015 -0.3601 -0.878005 4.2331 -3.18055e-015 -1.59028e-015 3.18055e-015 -0.9571 1.114 1.76948 8.82781e-032 1.59028e-015 -3.18055e-015 -4.1246 0.487 4.1451 -3.18055e-015 -1.59028e-015 3.18055e-015 -3.40521 -1.45401 2.7682 -7.95139e-016 -1.59028e-015 -3.18055e-015 -5.6954 0.209991 2.1184 -3.18055e-015 -1.59028e-015 3.18055e-015 -3.9766 -1.53999 2.3863 -7.95139e-016 -1.59028e-015 -3.18055e-015 -2.09559 0.65999 -0.38939 8.82781e-032 1.59028e-015 -3.18055e-015 -5.0395 -0.089997 2.49707 -3.18055e-015 -1.59028e-015 3.18055e-015 -3.7921 -1.552 1.4806 -7.95139e-016 -1.59028e-015 -3.18055e-015 -4.9141 -1.269 0.35915 -3.18055e-015 -1.59028e-015 3.18055e-015 -3.1477 -1.685 0.84623 -7.95139e-016 -1.59028e-015 -3.18055e-015 8.367 -8.2066 0.59823 0.592357 0.544415 0.146015 2.19232 -43.463 -0.493181 0.0856553 0.391073 -2.37864 0.733257 -45.8593 -2.64513 0.0566145 -0.393127 0.179926 -8.367 -8.2066 0.59823 2.18578 1.68021 -2.55075 -2.19233 -43.463 -0.493108 -0.555358 2.60542 -4.75934 -0.733256 -45.8593 -2.64514 3.14644 -2.09757 -0.58514 
-0.424541 103.974 -0.658299 0.69975 -1.89486 7.52558 0 -1.186 -1.50178 0.188555 1.16036 -0.0548535 0 9.964 0.21338 0.37787 2.3205 -0.115965 0 13.134 -3.25729 0.377247 2.32045 -0.119171 4.44089e-016 21.686 -1.69049 1.39859 -5.50622 -2.69666 8.88178e-016 11.838 -0.12368 -0.683598 0.513904 -2.07591 1.70688 20.075 5.0056 0.375734 -2.82732 -1.43701 13.6458 -0.047012 -4.84902 -82.5036 1.37999 4.45981 28.3255 -0.975903 2.28883 -1.56702 -3.97746 21.1816 22.1583 -0.530035 10.8316 0.233115 -0.110483 0.364888 0.785995 0.111999 2.58168 1.59028e-015 -1.59028e-015 -3.18055e-015 0.3601 -0.878005 4.2331 -2.38542e-015 0 -3.18055e-015 0.9571 1.114 1.76948 1.59028e-015 -1.59028e-015 -3.18055e-015 4.1246 0.487 4.1451 -2.38542e-015 0 -3.18055e-015 3.40521 -1.45401 2.7682 -2.38542e-015 3.18055e-015 -6.36111e-015 5.6954 0.209991 2.1184 -2.38542e-015 0 -3.18055e-015 3.9766 -1.53999 2.3863 -2.38542e-015 3.18055e-015 -6.36111e-015 2.09559 0.65999 -0.38939 1.59028e-015 -1.59028e-015 -3.18055e-015 5.0395 -0.089997 2.49707 -2.38542e-015 0 -3.18055e-015 3.7921 -1.552 1.4806 -2.38542e-015 3.18055e-015 -6.36111e-015 4.9141 -1.269 0.35915 -2.38542e-015 0 -3.18055e-015 3.1477 -1.685 0.84623 -2.38542e-015 3.18055e-015 -6.36111e-015 -1.70688 20.075 5.0056 1.68821 -2.84654 1.68668 -13.6458 -0.047012 -4.84902 76.1915 13.933 -4.95027 -28.3255 -0.975903 2.28883 1.77959 -8.19786 -18.4656 -22.1583 -0.530036 10.8316 3.6464 2.89066 -4.20876 -0.785995 0.111999 2.58168 7.95139e-016 1.59028e-015 3.18055e-015 -0.3601 -0.878005 4.2331 7.95139e-016 1.59028e-015 -0 -0.9571 1.114 1.76948 7.95139e-016 1.59028e-015 3.18055e-015 -4.1246 0.487 4.1451 7.95139e-016 1.59028e-015 -0 -3.40521 -1.45401 2.7682 7.95139e-016 1.59028e-015 -0 -5.6954 0.209991 2.1184 7.95139e-016 1.59028e-015 -0 -3.9766 -1.53999 2.3863 7.95139e-016 1.59028e-015 -0 -2.09559 0.65999 -0.38939 7.95139e-016 1.59028e-015 3.18055e-015 -5.0395 -0.089997 2.49707 7.95139e-016 1.59028e-015 -0 -3.7921 -1.552 1.4806 7.95139e-016 1.59028e-015 -0 -4.9141 -1.269 0.35915 7.95139e-016 1.59028e-015 -0 -3.1477 -1.685 0.84623 7.95139e-016 1.59028e-015 -0 8.367 -8.2066 0.59823 0.551749 0.464621 0.0859895 2.19232 -43.463 -0.493181 0.124159 0.446704 -2.34415 0.733257 -45.8593 -2.64513 -0.0706295 -0.455698 0.204453 -8.367 -8.2066 0.59823 2.17008 1.5116 -2.5692 -2.19233 -43.463 -0.493108 -0.550913 2.88309 -4.79042 -0.733256 -45.8593 -2.64514 3.21224 -2.23451 -0.586188 
